<svg xmlns="http://www.w3.org/2000/svg" xmlns:xlink="http://www.w3.org/1999/xlink" viewBox="0 0 472.24 530.47"><defs><style>.cls-1,.cls-5,.cls-7{stroke-miterlimit:10;}.cls-1{fill:url(#Degradado_sin_nombre_41);stroke:url(#Degradado_sin_nombre_33);}.cls-2{fill:url(#Degradado_sin_nombre_41-2);}.cls-3{fill:url(#Degradado_sin_nombre_41-3);}.cls-4{fill:url(#Degradado_sin_nombre_41-4);}.cls-5{fill:none;}.cls-5,.cls-7{stroke:#000;}.cls-6{fill:url(#Degradado_sin_nombre_41-5);}.cls-7{fill:#fe5868;}</style><linearGradient id="Degradado_sin_nombre_41" x1="65.28" y1="65.24" x2="433.28" y2="433.25" gradientUnits="userSpaceOnUse"><stop offset="0" stop-color="#f857a5"/><stop offset="1" stop-color="#fe5868"/></linearGradient><linearGradient id="Degradado_sin_nombre_33" x1="30.56" y1="270.72" x2="445.93" y2="270.72" gradientUnits="userSpaceOnUse"><stop offset="0" stop-color="#f9579b"/><stop offset="1" stop-color="#f857a3"/></linearGradient><linearGradient id="Degradado_sin_nombre_41-2" x1="117.53" y1="138.17" x2="226.59" y2="138.17" xlink:href="#Degradado_sin_nombre_41"/><linearGradient id="Degradado_sin_nombre_41-3" x1="248.54" y1="138.17" x2="357.6" y2="138.17" xlink:href="#Degradado_sin_nombre_41"/><linearGradient id="Degradado_sin_nombre_41-4" x1="249.83" y1="292.95" x2="357.77" y2="292.95" xlink:href="#Degradado_sin_nombre_41"/><linearGradient id="Degradado_sin_nombre_41-5" x1="119.83" y1="295.25" x2="227.77" y2="295.25" xlink:href="#Degradado_sin_nombre_41"/></defs><g id="Capa_5" data-name="Capa 5"><path class="cls-1" d="M445.41,340.23,443.3,134.12c-7.44-72.71-72-97.46-100.24-102.36H127.77C69.18,48,37.27,85.72,31.06,134.12v204c9.2,80,78.84,102.89,102.35,105.17l120.18.88,79.94,60.71c17,8.84,29.15,5.84,35.12-12.35L370,434.35C429.82,416.06,446.09,343.93,445.41,340.23ZM402.52,156.44l-.75,183.79c-6.5,31.51-32.44,52.27-51.91,58.46,0,0-21.77,3.23-23.5,18.2l-.24,28.17-61.41-42.44-129.63-.7c-18.87-1.56-51.53-26-59.67-61.69L75.65,140c3.06-34.59,25.41-56.71,62.12-64.83H338.3C359.61,77.55,404.65,99.53,402.52,156.44Z"/><path class="cls-2" d="M172.06,84.7c-30.11,0-54.53,23.94-54.53,53.47s24.42,53.47,54.53,53.47,54.53-23.93,54.53-53.47S202.18,84.7,172.06,84.7Zm.65,65.89c-6.69,0-12.12-5-12.12-11.06s5.43-11.06,12.12-11.06,12.12,4.95,12.12,11.06S179.4,150.59,172.71,150.59Z"/><path class="cls-3" d="M303.07,84.7c-30.12,0-54.53,23.94-54.53,53.47s24.41,53.47,54.53,53.47,54.53-23.93,54.53-53.47S333.18,84.7,303.07,84.7Zm.64,65.89c-6.69,0-12.11-5-12.11-11.06s5.42-11.06,12.11-11.06,12.12,4.95,12.12,11.06S310.41,150.59,303.71,150.59Z"/><path class="cls-4" d="M357.08,242.13c-3.65-26-26.45-46.11-54-46.11-25.71,0-47.26,17.44-53,40.91l-.23,111.39c2.32,11.83,19,42.18,53.24,41.55A55.39,55.39,0,0,0,357.6,336.4C358.2,318.51,357.08,242.13,357.08,242.13ZM291.6,337.75m.87-4.1.14-31.68.09-18.06.13-28.22,0-8.9c-.48-.83,1.75-7.85,11.76-7.93s11.2,8.24,11.2,8.24v90.65c0,6.11-5.42,11.06-12.12,11.06a12.14,12.14,0,0,1-11.28-7v0"/><line class="cls-5" x1="315.83" y1="338.25" x2="315.83" y2="337.75"/><path class="cls-6" d="M162.61,304.27,162.47,336m64.61-91.52c-3.65-26.05-26.45-46.11-54-46.11-25.71,0-47.26,17.44-53,40.91l-.23,111.38c2.32,11.84,19,42.19,53.24,41.56A55.39,55.39,0,0,0,227.6,338.7C228.2,320.81,227.08,244.43,227.08,244.43Zm-41.25,95.62c0,6.11-5.42,11.06-12.12,11.06a12.14,12.14,0,0,1-11.28-7v0c-.09-1.13.18-39.79.18-39.79l.09-18.06.13-28.22,0-8.9c-.48-.83,1.75-7.85,11.77-7.94s11.19,8.25,11.19,8.25Z"/><line class="cls-7" x1="185.83" y1="340.55" x2="185.83" y2="340.05"/></g></svg>